<svg width="24" height="20" viewBox="0 0 24 20" fill="none" xmlns="http://www.w3.org/2000/svg">
<path d="M18.0634 7.49916H12.1259V9.68666C12.1259 11.2374 10.8642 12.4992 9.31339 12.4992C7.76261 12.4992 6.50089 11.2374 6.50089 9.68666V4.93666L3.96573 6.46009C3.21183 6.90931 2.75089 7.72572 2.75089 8.60072V10.4484L-0.374109 12.2531C-0.971765 12.5968 -1.1788 13.3624 -0.83114 13.9601L2.29386 19.3742C2.63761 19.9718 3.40323 20.1749 4.00089 19.8312L8.03995 17.4992H13.3759C14.7548 17.4992 15.8759 16.3781 15.8759 14.9992H16.5009C17.1923 14.9992 17.7509 14.4406 17.7509 13.7492V11.2492H18.0634C18.5829 11.2492 19.0009 10.8312 19.0009 10.3117V8.43666C19.0009 7.91712 18.5829 7.49916 18.0634 7.49916ZM23.8329 6.03822L20.7079 0.624155C20.3642 0.0264987 19.5985 -0.176626 19.0009 0.167124L14.9618 2.49916H10.9696C10.5009 2.49916 10.0439 2.63197 9.64542 2.87806L8.33683 3.69447C7.96964 3.92103 7.75089 4.32337 7.75089 4.75306V9.68666C7.75089 10.5499 8.45011 11.2492 9.31339 11.2492C10.1767 11.2492 10.8759 10.5499 10.8759 9.68666V6.24916H18.0634C19.2704 6.24916 20.2509 7.22962 20.2509 8.43666V9.54994L23.3759 7.74525C23.9735 7.39759 24.1767 6.63587 23.8329 6.03822Z" fill="black"/>
</svg>
