<svg width="22" height="22" viewBox="0 0 22 22" fill="none" xmlns="http://www.w3.org/2000/svg">
<path d="M6.05176 5.39941C6.38509 5.48275 6.7028 5.54525 7.00488 5.58691C7.30697 5.62858 7.57259 5.65983 7.80176 5.68066C8.07259 5.71191 8.32259 5.72233 8.55176 5.71191C8.84342 5.71191 9.20801 5.68587 9.64551 5.63379C10.0934 5.58171 10.5518 5.53483 11.0205 5.49316C11.4893 5.44108 11.9372 5.40983 12.3643 5.39941C12.8018 5.37858 13.1559 5.40462 13.4268 5.47754C13.6976 5.54004 13.9736 5.639 14.2549 5.77441C14.5465 5.89941 14.8122 6.06087 15.0518 6.25879C15.2913 6.44629 15.4893 6.67025 15.6455 6.93066C15.8018 7.18066 15.8903 7.46712 15.9111 7.79004C15.9007 8.19629 15.807 8.5765 15.6299 8.93066C15.484 9.23275 15.2393 9.54525 14.8955 9.86816C14.5518 10.1807 14.057 10.4202 13.4111 10.5869C13.734 10.6286 14.0101 10.7015 14.2393 10.8057C14.4788 10.8994 14.682 11.014 14.8486 11.1494C15.0257 11.2744 15.1663 11.415 15.2705 11.5713C15.3851 11.7275 15.4736 11.8838 15.5361 12.04C15.6924 12.4046 15.7653 12.8109 15.7549 13.2588C15.6924 13.8421 15.5726 14.3057 15.3955 14.6494C15.2288 14.9932 15.0361 15.2588 14.8174 15.4463C14.5986 15.6338 14.3747 15.764 14.1455 15.8369C13.9163 15.9098 13.708 15.9671 13.5205 16.0088C13.333 16.0505 13.1038 16.0713 12.833 16.0713C12.5622 16.0713 12.2705 16.0661 11.958 16.0557C11.6559 16.0348 11.3434 16.0192 11.0205 16.0088C10.6976 15.988 10.3903 15.988 10.0986 16.0088C9.85905 16.0296 9.56738 16.0505 9.22363 16.0713C8.93197 16.0921 8.56738 16.1182 8.12988 16.1494C7.69238 16.1702 7.18197 16.1963 6.59863 16.2275C6.71322 16.1442 6.80697 16.0505 6.87988 15.9463C6.96322 15.8317 7.03092 15.7327 7.08301 15.6494C7.13509 15.5452 7.18197 15.4463 7.22363 15.3525C7.25488 15.2692 7.28092 15.04 7.30176 14.665C7.32259 14.29 7.33822 13.8421 7.34863 13.3213C7.35905 12.79 7.36426 12.2223 7.36426 11.6182C7.37467 11.0036 7.36947 10.415 7.34863 9.85254C7.33822 9.27962 7.31738 8.77441 7.28613 8.33691C7.2653 7.889 7.23405 7.56608 7.19238 7.36816C7.12988 7.14941 7.04655 6.92546 6.94238 6.69629C6.85905 6.49837 6.73926 6.28483 6.58301 6.05566C6.43717 5.8265 6.26009 5.60775 6.05176 5.39941ZM9.34863 6.99316C9.34863 7.03483 9.35384 7.17546 9.36426 7.41504C9.37467 7.62337 9.38509 7.94629 9.39551 8.38379C9.41634 8.81087 9.44238 9.42025 9.47363 10.2119C9.73405 10.3265 9.98926 10.389 10.2393 10.3994C10.4893 10.3994 10.7132 10.389 10.9111 10.3682C11.1403 10.3369 11.359 10.2848 11.5674 10.2119C11.8486 10.0973 12.0674 9.90983 12.2236 9.64941C12.3903 9.389 12.4997 9.11816 12.5518 8.83691C12.6143 8.54525 12.6299 8.27441 12.5986 8.02441C12.5674 7.764 12.4997 7.5765 12.3955 7.46191C12.1976 7.28483 11.9528 7.139 11.6611 7.02441C11.4111 6.93066 11.0934 6.86816 10.708 6.83691C10.333 6.79525 9.87988 6.84733 9.34863 6.99316ZM9.27051 14.3994C9.65592 14.5973 9.99447 14.7275 10.2861 14.79C10.5778 14.8525 10.8226 14.8838 11.0205 14.8838C11.2497 14.8838 11.4476 14.8525 11.6143 14.79C11.8122 14.6963 12.0049 14.5713 12.1924 14.415C12.3903 14.2484 12.5361 14.0557 12.6299 13.8369C12.734 13.6077 12.7757 13.3577 12.7549 13.0869C12.734 12.8057 12.6143 12.4984 12.3955 12.165C12.1976 11.9255 11.958 11.738 11.6768 11.6025C11.4268 11.488 11.109 11.415 10.7236 11.3838C10.3486 11.3525 9.88509 11.4411 9.33301 11.6494L9.27051 14.3994Z" fill="black"/>
<circle cx="11" cy="11" r="10" stroke="black" stroke-width="2"/>
</svg>
