<svg width="27" height="27" viewBox="0 0 27 27" fill="none" xmlns="http://www.w3.org/2000/svg">
<path d="M4.25364 9.24637C3.41235 11.0751 3.13224 13.1123 3.44874 15.1003C3.76524 17.0882 4.66412 18.9377 6.03173 20.4148C7.39934 21.8919 9.17425 22.9302 11.132 23.3986C13.0898 23.8669 15.1424 23.7442 17.0304 23.046C18.9185 22.3477 20.557 21.1053 21.7389 19.4758C22.9208 17.8463 23.593 15.9029 23.6704 13.8914C23.7478 11.8799 23.227 9.89062 22.1738 8.17511C21.1206 6.45959 19.5824 5.09491 17.7536 4.25362C15.3009 3.12858 12.5021 3.02242 9.97123 3.95842C7.44034 4.89443 5.3841 6.79616 4.25364 9.24637ZM22.0354 17.4262C21.2588 19.1143 19.9992 20.5342 18.4157 21.5063C16.8321 22.4785 14.9959 22.9592 13.1392 22.8878C11.2824 22.8164 9.48858 22.196 7.98444 21.1051C6.48029 20.0141 5.33342 18.5017 4.68885 16.7589C4.04427 15.0162 3.93094 13.1215 4.3632 11.3144C4.79545 9.50722 5.75387 7.86884 7.11725 6.6064C8.48064 5.34396 10.1878 4.51416 12.0227 4.22193C13.8577 3.92969 15.7382 4.18815 17.4263 4.96462C19.6882 6.00797 21.4438 7.90601 22.3079 10.2423C23.172 12.5785 23.074 15.1622 22.0354 17.4262Z" fill="currentColor" stroke="currentColor"/>
<path d="M8.34187 9.29813C7.51438 10.3143 7.00535 11.5521 6.87861 12.8565C6.75187 14.1608 7.01307 15.4735 7.62944 16.6299C8.24581 17.7864 9.18992 18.7351 10.3434 19.3571C11.4968 19.9791 12.8082 20.2466 14.1131 20.1263C14.2122 20.1116 14.3018 20.0595 14.3636 19.9808C14.4255 19.9021 14.4548 19.8026 14.4456 19.7029C14.4364 19.6032 14.3893 19.5109 14.3141 19.4448C14.2388 19.3787 14.1412 19.344 14.0411 19.3478C13.0819 19.4363 12.1156 19.2875 11.2274 18.9145C10.3392 18.5415 9.55646 17.9558 8.94808 17.2089C8.3397 16.462 7.92441 15.5769 7.7388 14.6316C7.55319 13.6863 7.60297 12.7099 7.88376 11.7884C8.16454 10.867 8.6677 10.0287 9.34888 9.34753C10.0301 8.66638 10.8684 8.16327 11.7899 7.88253C12.7114 7.60179 13.6878 7.55206 14.633 7.73772C15.5783 7.92338 16.4634 8.33872 17.2102 8.94713C17.2908 9.01277 17.3941 9.04372 17.4975 9.03318C17.6009 9.02263 17.6959 8.97144 17.7615 8.89088C17.8271 8.81032 17.8581 8.70699 17.8475 8.60361C17.837 8.50023 17.7858 8.40527 17.7052 8.33963C17.0276 7.78762 16.2478 7.37452 15.4104 7.12394C14.573 6.87335 13.6945 6.79019 12.825 6.8792C11.9555 6.96821 11.112 7.22765 10.3428 7.64269C9.57357 8.05774 8.89365 8.62026 8.34187 9.29813Z" fill="currentColor" stroke="currentColor"/>
<path d="M19.0147 11.0149L13.5405 12.0127C13.5275 12.0169 13.5147 12.0218 13.5022 12.0274C13.2359 11.9646 12.9578 11.9729 12.6958 12.0514C12.4337 12.13 12.1968 12.276 12.009 12.4749C11.8211 12.6737 11.6887 12.9185 11.6252 13.1846C11.5617 13.4507 11.5692 13.7288 11.647 13.9911C11.7247 14.2534 11.8701 14.4907 12.0684 14.6792C12.2667 14.8676 12.5111 15.0007 12.777 15.065C13.0429 15.1293 13.3211 15.1226 13.5836 15.0456C13.8461 14.9685 14.0838 14.8239 14.2729 14.6261L19.2791 11.7394C19.3589 11.6933 19.4199 11.6206 19.4513 11.5341C19.4828 11.4475 19.4827 11.3526 19.4512 11.2661C19.4196 11.1796 19.3585 11.1069 19.2787 11.061C19.1989 11.015 19.1054 10.9987 19.0147 11.0149ZM13.7452 14.0524C13.68 14.1347 13.5988 14.2031 13.5065 14.2534C13.4143 14.3037 13.3128 14.3349 13.2083 14.3452C13.1037 14.3555 12.9981 14.3446 12.8978 14.3132C12.7975 14.2818 12.7046 14.2306 12.6245 14.1625C12.5445 14.0945 12.4789 14.011 12.4318 13.9171C12.3847 13.8232 12.3569 13.7207 12.3502 13.6159C12.3435 13.511 12.358 13.4059 12.3928 13.3067C12.4276 13.2076 12.482 13.1164 12.5527 13.0387C12.6884 12.8842 12.8793 12.7893 13.0843 12.7744C13.2894 12.7594 13.492 12.8257 13.6486 12.959C13.8052 13.0922 13.903 13.2817 13.9211 13.4864C13.9392 13.6912 13.876 13.8938 13.7452 14.0524Z" fill="currentColor" stroke="currentColor"/>
</svg>
